<?xml version="1.0" encoding="utf-8" standalone="no"?>
<!DOCTYPE svg PUBLIC "-//W3C//DTD SVG 1.1//EN"
  "http://www.w3.org/Graphics/SVG/1.1/DTD/svg11.dtd">
<svg xmlns:xlink="http://www.w3.org/1999/xlink" width="460.8pt" height="345.6pt" viewBox="0 0 460.8 345.6" xmlns="http://www.w3.org/2000/svg" version="1.1">
 <metadata>
  <rdf:RDF xmlns:dc="http://purl.org/dc/elements/1.1/" xmlns:cc="http://creativecommons.org/ns#" xmlns:rdf="http://www.w3.org/1999/02/22-rdf-syntax-ns#">
   <cc:Work>
    <dc:type rdf:resource="http://purl.org/dc/dcmitype/StillImage"/>
    <dc:date>2024-07-15T03:48:51.725205</dc:date>
    <dc:format>image/svg+xml</dc:format>
    <dc:creator>
     <cc:Agent>
      <dc:title>Matplotlib v3.9.0, https://matplotlib.org/</dc:title>
     </cc:Agent>
    </dc:creator>
   </cc:Work>
  </rdf:RDF>
 </metadata>
 <defs>
  <style type="text/css">*{stroke-linejoin: round; stroke-linecap: butt}</style>
 </defs>
 <g id="figure_1">
  <g id="patch_1">
   <path d="M 0 345.6 
L 460.8 345.6 
L 460.8 0 
L 0 0 
z
" style="fill: #ffffff"/>
  </g>
  <g id="axes_1">
   <g id="patch_2">
    <path d="M 63.47 289.052197 
L 450 289.052197 
L 450 26.88 
L 63.47 26.88 
z
" style="fill: #ffffff"/>
   </g>
   <g id="PolyCollection_1">
    <defs>
     <path id="m09a1d9351e" d="M 81.039545 -85.907084 
L 81.039545 -56.547803 
L 93.156473 -56.547803 
L 105.273401 -56.547803 
L 117.390329 -56.547803 
L 129.507257 -56.547803 
L 141.624185 -56.547803 
L 153.741113 -56.547803 
L 165.858041 -56.547803 
L 177.974969 -56.547803 
L 190.091897 -56.547803 
L 202.208824 -56.547803 
L 214.325752 -56.547803 
L 226.44268 -56.547803 
L 238.559608 -56.547803 
L 250.676536 -56.547803 
L 262.793464 -56.547803 
L 274.910392 -56.547803 
L 287.02732 -56.547803 
L 299.144248 -56.547803 
L 311.261176 -56.547803 
L 323.378103 -56.547803 
L 335.495031 -56.547803 
L 347.611959 -56.547803 
L 359.728887 -56.547803 
L 371.845815 -56.547803 
L 383.962743 -56.547803 
L 396.079671 -56.547803 
L 408.196599 -56.547803 
L 420.313527 -56.547803 
L 432.430455 -56.547803 
L 432.430455 -73.514377 
L 432.430455 -73.514377 
L 420.313527 -68.672671 
L 408.196599 -79.417138 
L 396.079671 -90.604569 
L 383.962743 -76.120657 
L 371.845815 -80.663619 
L 359.728887 -79.757087 
L 347.611959 -79.272917 
L 335.495031 -69.816138 
L 323.378103 -86.968139 
L 311.261176 -90.841503 
L 299.144248 -85.010853 
L 287.02732 -79.932213 
L 274.910392 -80.653318 
L 262.793464 -81.704071 
L 250.676536 -81.570152 
L 238.559608 -103.553557 
L 226.44268 -108.261343 
L 214.325752 -96.394013 
L 202.208824 -84.691507 
L 190.091897 -71.381966 
L 177.974969 -70.846288 
L 165.858041 -82.17794 
L 153.741113 -100.720644 
L 141.624185 -101.750794 
L 129.507257 -86.803315 
L 117.390329 -89.37869 
L 105.273401 -89.296278 
L 93.156473 -85.783466 
L 81.039545 -85.907084 
z
" style="stroke: #1f77b4"/>
    </defs>
    <g clip-path="url(#pdf65eacf49)">
     <use xlink:href="#m09a1d9351e" x="0" y="345.6" style="fill: #1f77b4; stroke: #1f77b4"/>
    </g>
   </g>
   <g id="PolyCollection_2">
    <defs>
     <path id="m330355109b" d="M 81.039545 -117.749027 
L 81.039545 -85.907084 
L 93.156473 -85.783466 
L 105.273401 -89.296278 
L 117.390329 -89.37869 
L 129.507257 -86.803315 
L 141.624185 -101.750794 
L 153.741113 -100.720644 
L 165.858041 -82.17794 
L 177.974969 -70.846288 
L 190.091897 -71.381966 
L 202.208824 -84.691507 
L 214.325752 -96.394013 
L 226.44268 -108.261343 
L 238.559608 -103.553557 
L 250.676536 -81.570152 
L 262.793464 -81.704071 
L 274.910392 -80.653318 
L 287.02732 -79.932213 
L 299.144248 -85.010853 
L 311.261176 -90.841503 
L 323.378103 -86.968139 
L 335.495031 -69.816138 
L 347.611959 -79.272917 
L 359.728887 -79.757087 
L 371.845815 -80.663619 
L 383.962743 -76.120657 
L 396.079671 -90.604569 
L 408.196599 -79.417138 
L 420.313527 -68.672671 
L 432.430455 -73.514377 
L 432.430455 -84.938743 
L 432.430455 -84.938743 
L 420.313527 -76.882968 
L 408.196599 -95.518385 
L 396.079671 -119.263348 
L 383.962743 -89.677434 
L 371.845815 -100.318885 
L 359.728887 -98.536725 
L 347.611959 -96.466123 
L 335.495031 -77.501058 
L 323.378103 -115.462093 
L 311.261176 -114.07139 
L 299.144248 -108.972147 
L 287.02732 -99.31964 
L 274.910392 -100.360091 
L 262.793464 -104.109838 
L 250.676536 -102.379186 
L 238.559608 -140.463839 
L 226.44268 -151.826395 
L 214.325752 -127.525152 
L 202.208824 -110.053805 
L 190.091897 -82.17794 
L 177.974969 -78.459098 
L 165.858041 -103.23421 
L 153.741113 -142.66836 
L 141.624185 -141.184944 
L 129.507257 -113.752044 
L 117.390329 -117.491489 
L 105.273401 -118.501036 
L 93.156473 -111.815362 
L 81.039545 -117.749027 
z
" style="stroke: #ff7f0e"/>
    </defs>
    <g clip-path="url(#pdf65eacf49)">
     <use xlink:href="#m330355109b" x="0" y="345.6" style="fill: #ff7f0e; stroke: #ff7f0e"/>
    </g>
   </g>
   <g id="PolyCollection_3">
    <defs>
     <path id="md111c57918" d="M 81.039545 -139.691226 
L 81.039545 -117.749027 
L 93.156473 -111.815362 
L 105.273401 -118.501036 
L 117.390329 -117.491489 
L 129.507257 -113.752044 
L 141.624185 -141.184944 
L 153.741113 -142.66836 
L 165.858041 -103.23421 
L 177.974969 -78.459098 
L 190.091897 -82.17794 
L 202.208824 -110.053805 
L 214.325752 -127.525152 
L 226.44268 -151.826395 
L 238.559608 -140.463839 
L 250.676536 -102.379186 
L 262.793464 -104.109838 
L 274.910392 -100.360091 
L 287.02732 -99.31964 
L 299.144248 -108.972147 
L 311.261176 -114.07139 
L 323.378103 -115.462093 
L 335.495031 -77.501058 
L 347.611959 -96.466123 
L 359.728887 -98.536725 
L 371.845815 -100.318885 
L 383.962743 -89.677434 
L 396.079671 -119.263348 
L 408.196599 -95.518385 
L 420.313527 -76.882968 
L 432.430455 -84.938743 
L 432.430455 -92.242508 
L 432.430455 -92.242508 
L 420.313527 -83.929195 
L 408.196599 -103.502049 
L 396.079671 -134.09751 
L 383.962743 -101.122402 
L 371.845815 -114.33923 
L 359.728887 -113.370888 
L 347.611959 -111.918377 
L 335.495031 -84.804823 
L 323.378103 -131.892989 
L 311.261176 -129.739975 
L 299.144248 -120.118372 
L 287.02732 -108.683705 
L 274.910392 -111.609331 
L 262.793464 -119.685709 
L 250.676536 -120.097769 
L 238.559608 -171.141712 
L 226.44268 -187.026628 
L 214.325752 -145.624891 
L 202.208824 -130.100528 
L 190.091897 -91.202056 
L 177.974969 -84.238241 
L 165.858041 -112.371643 
L 153.741113 -167.330156 
L 141.624185 -160.335436 
L 129.507257 -122.807064 
L 117.390329 -128.524398 
L 105.273401 -130.646507 
L 93.156473 -125.197013 
L 81.039545 -139.691226 
z
" style="stroke: #2ca02c"/>
    </defs>
    <g clip-path="url(#pdf65eacf49)">
     <use xlink:href="#md111c57918" x="0" y="345.6" style="fill: #2ca02c; stroke: #2ca02c"/>
    </g>
   </g>
   <g id="PolyCollection_4">
    <defs>
     <path id="md5874f83af" d="M 81.039545 -162.972621 
L 81.039545 -139.691226 
L 93.156473 -125.197013 
L 105.273401 -130.646507 
L 117.390329 -128.524398 
L 129.507257 -122.807064 
L 141.624185 -160.335436 
L 153.741113 -167.330156 
L 165.858041 -112.371643 
L 177.974969 -84.238241 
L 190.091897 -91.202056 
L 202.208824 -130.100528 
L 214.325752 -145.624891 
L 226.44268 -187.026628 
L 238.559608 -171.141712 
L 250.676536 -120.097769 
L 262.793464 -119.685709 
L 274.910392 -111.609331 
L 287.02732 -108.683705 
L 299.144248 -120.118372 
L 311.261176 -129.739975 
L 323.378103 -131.892989 
L 335.495031 -84.804823 
L 347.611959 -111.918377 
L 359.728887 -113.370888 
L 371.845815 -114.33923 
L 383.962743 -101.122402 
L 396.079671 -134.09751 
L 408.196599 -103.502049 
L 420.313527 -83.929195 
L 432.430455 -92.242508 
L 432.430455 -102.925165 
L 432.430455 -102.925165 
L 420.313527 -91.748036 
L 408.196599 -115.122144 
L 396.079671 -161.695234 
L 383.962743 -113.339984 
L 371.845815 -133.541229 
L 359.728887 -132.974647 
L 347.611959 -130.66711 
L 335.495031 -93.313864 
L 323.378103 -158.676894 
L 311.261176 -150.013331 
L 299.144248 -141.617607 
L 287.02732 -126.021133 
L 274.910392 -131.614848 
L 262.793464 -143.842731 
L 250.676536 -143.070119 
L 238.559608 -212.574353 
L 226.44268 -240.769564 
L 214.325752 -181.96859 
L 202.208824 -157.914583 
L 190.091897 -102.492502 
L 177.974969 -90.233715 
L 165.858041 -135.951781 
L 153.741113 -212.945207 
L 141.624185 -204.52888 
L 129.507257 -150.518105 
L 117.390329 -155.267097 
L 105.273401 -156.812322 
L 93.156473 -147.417353 
L 81.039545 -162.972621 
z
" style="stroke: #d62728"/>
    </defs>
    <g clip-path="url(#pdf65eacf49)">
     <use xlink:href="#md5874f83af" x="0" y="345.6" style="fill: #d62728; stroke: #d62728"/>
    </g>
   </g>
   <g id="PolyCollection_5">
    <defs>
     <path id="m299ec2af3d" d="M 81.039545 -198.059537 
L 81.039545 -162.972621 
L 93.156473 -147.417353 
L 105.273401 -156.812322 
L 117.390329 -155.267097 
L 129.507257 -150.518105 
L 141.624185 -204.52888 
L 153.741113 -212.945207 
L 165.858041 -135.951781 
L 177.974969 -90.233715 
L 190.091897 -102.492502 
L 202.208824 -157.914583 
L 214.325752 -181.96859 
L 226.44268 -240.769564 
L 238.559608 -212.574353 
L 250.676536 -143.070119 
L 262.793464 -143.842731 
L 274.910392 -131.614848 
L 287.02732 -126.021133 
L 299.144248 -141.617607 
L 311.261176 -150.013331 
L 323.378103 -158.676894 
L 335.495031 -93.313864 
L 347.611959 -130.66711 
L 359.728887 -132.974647 
L 371.845815 -133.541229 
L 383.962743 -113.339984 
L 396.079671 -161.695234 
L 408.196599 -115.122144 
L 420.313527 -91.748036 
L 432.430455 -102.925165 
L 432.430455 -123.682692 
L 432.430455 -123.682692 
L 420.313527 -104.594009 
L 408.196599 -144.79047 
L 396.079671 -205.229382 
L 383.962743 -132.984948 
L 371.845815 -160.91232 
L 359.728887 -159.799758 
L 347.611959 -156.874131 
L 335.495031 -107.231193 
L 323.378103 -198.986672 
L 311.261176 -186.130397 
L 299.144248 -183.390198 
L 287.02732 -155.339208 
L 274.910392 -162.241214 
L 262.793464 -177.106282 
L 250.676536 -175.385931 
L 238.559608 -264.463019 
L 226.44268 -306.23561 
L 214.325752 -227.202486 
L 202.208824 -192.589439 
L 190.091897 -119.572393 
L 177.974969 -105.685968 
L 165.858041 -167.793724 
L 153.741113 -275.176581 
L 141.624185 -259.374077 
L 129.507257 -187.562306 
L 117.390329 -191.930143 
L 105.273401 -185.965573 
L 93.156473 -177.652261 
L 81.039545 -198.059537 
z
" style="stroke: #9467bd"/>
    </defs>
    <g clip-path="url(#pdf65eacf49)">
     <use xlink:href="#m299ec2af3d" x="0" y="345.6" style="fill: #9467bd; stroke: #9467bd"/>
    </g>
   </g>
   <g id="matplotlib.axis_1">
    <g id="xtick_1">
     <g id="line2d_1">
      <defs>
       <path id="m22276161a5" d="M 0 0 
L 0 3.5 
" style="stroke: #000000; stroke-width: 0.8"/>
      </defs>
      <g>
       <use xlink:href="#m22276161a5" x="81.039545" y="289.052197" style="stroke: #000000; stroke-width: 0.8"/>
      </g>
     </g>
     <g id="text_1">
      <!-- 2020-06-01 -->
      <g transform="translate(53.686033 318.433155) rotate(-15) scale(0.1 -0.1)">
       <defs>
        <path id="DejaVuSans-32" d="M 1228 531 
L 3431 531 
L 3431 0 
L 469 0 
L 469 531 
Q 828 903 1448 1529 
Q 2069 2156 2228 2338 
Q 2531 2678 2651 2914 
Q 2772 3150 2772 3378 
Q 2772 3750 2511 3984 
Q 2250 4219 1831 4219 
Q 1534 4219 1204 4116 
Q 875 4013 500 3803 
L 500 4441 
Q 881 4594 1212 4672 
Q 1544 4750 1819 4750 
Q 2544 4750 2975 4387 
Q 3406 4025 3406 3419 
Q 3406 3131 3298 2873 
Q 3191 2616 2906 2266 
Q 2828 2175 2409 1742 
Q 1991 1309 1228 531 
z
" transform="scale(0.015625)"/>
        <path id="DejaVuSans-30" d="M 2034 4250 
Q 1547 4250 1301 3770 
Q 1056 3291 1056 2328 
Q 1056 1369 1301 889 
Q 1547 409 2034 409 
Q 2525 409 2770 889 
Q 3016 1369 3016 2328 
Q 3016 3291 2770 3770 
Q 2525 4250 2034 4250 
z
M 2034 4750 
Q 2819 4750 3233 4129 
Q 3647 3509 3647 2328 
Q 3647 1150 3233 529 
Q 2819 -91 2034 -91 
Q 1250 -91 836 529 
Q 422 1150 422 2328 
Q 422 3509 836 4129 
Q 1250 4750 2034 4750 
z
" transform="scale(0.015625)"/>
        <path id="DejaVuSans-2d" d="M 313 2009 
L 1997 2009 
L 1997 1497 
L 313 1497 
L 313 2009 
z
" transform="scale(0.015625)"/>
        <path id="DejaVuSans-36" d="M 2113 2584 
Q 1688 2584 1439 2293 
Q 1191 2003 1191 1497 
Q 1191 994 1439 701 
Q 1688 409 2113 409 
Q 2538 409 2786 701 
Q 3034 994 3034 1497 
Q 3034 2003 2786 2293 
Q 2538 2584 2113 2584 
z
M 3366 4563 
L 3366 3988 
Q 3128 4100 2886 4159 
Q 2644 4219 2406 4219 
Q 1781 4219 1451 3797 
Q 1122 3375 1075 2522 
Q 1259 2794 1537 2939 
Q 1816 3084 2150 3084 
Q 2853 3084 3261 2657 
Q 3669 2231 3669 1497 
Q 3669 778 3244 343 
Q 2819 -91 2113 -91 
Q 1303 -91 875 529 
Q 447 1150 447 2328 
Q 447 3434 972 4092 
Q 1497 4750 2381 4750 
Q 2619 4750 2861 4703 
Q 3103 4656 3366 4563 
z
" transform="scale(0.015625)"/>
        <path id="DejaVuSans-31" d="M 794 531 
L 1825 531 
L 1825 4091 
L 703 3866 
L 703 4441 
L 1819 4666 
L 2450 4666 
L 2450 531 
L 3481 531 
L 3481 0 
L 794 0 
L 794 531 
z
" transform="scale(0.015625)"/>
       </defs>
       <use xlink:href="#DejaVuSans-32"/>
       <use xlink:href="#DejaVuSans-30" x="63.623047"/>
       <use xlink:href="#DejaVuSans-32" x="127.246094"/>
       <use xlink:href="#DejaVuSans-30" x="190.869141"/>
       <use xlink:href="#DejaVuSans-2d" x="254.492188"/>
       <use xlink:href="#DejaVuSans-30" x="290.576172"/>
       <use xlink:href="#DejaVuSans-36" x="354.199219"/>
       <use xlink:href="#DejaVuSans-2d" x="417.822266"/>
       <use xlink:href="#DejaVuSans-30" x="453.90625"/>
       <use xlink:href="#DejaVuSans-31" x="517.529297"/>
      </g>
     </g>
    </g>
    <g id="xtick_2">
     <g id="line2d_2">
      <g>
       <use xlink:href="#m22276161a5" x="141.624185" y="289.052197" style="stroke: #000000; stroke-width: 0.8"/>
      </g>
     </g>
     <g id="text_2">
      <!-- 2020-06-06 -->
      <g transform="translate(114.270672 318.433155) rotate(-15) scale(0.1 -0.1)">
       <use xlink:href="#DejaVuSans-32"/>
       <use xlink:href="#DejaVuSans-30" x="63.623047"/>
       <use xlink:href="#DejaVuSans-32" x="127.246094"/>
       <use xlink:href="#DejaVuSans-30" x="190.869141"/>
       <use xlink:href="#DejaVuSans-2d" x="254.492188"/>
       <use xlink:href="#DejaVuSans-30" x="290.576172"/>
       <use xlink:href="#DejaVuSans-36" x="354.199219"/>
       <use xlink:href="#DejaVuSans-2d" x="417.822266"/>
       <use xlink:href="#DejaVuSans-30" x="453.90625"/>
       <use xlink:href="#DejaVuSans-36" x="517.529297"/>
      </g>
     </g>
    </g>
    <g id="xtick_3">
     <g id="line2d_3">
      <g>
       <use xlink:href="#m22276161a5" x="202.208824" y="289.052197" style="stroke: #000000; stroke-width: 0.8"/>
      </g>
     </g>
     <g id="text_3">
      <!-- 2020-06-11 -->
      <g transform="translate(174.855312 318.433155) rotate(-15) scale(0.1 -0.1)">
       <use xlink:href="#DejaVuSans-32"/>
       <use xlink:href="#DejaVuSans-30" x="63.623047"/>
       <use xlink:href="#DejaVuSans-32" x="127.246094"/>
       <use xlink:href="#DejaVuSans-30" x="190.869141"/>
       <use xlink:href="#DejaVuSans-2d" x="254.492188"/>
       <use xlink:href="#DejaVuSans-30" x="290.576172"/>
       <use xlink:href="#DejaVuSans-36" x="354.199219"/>
       <use xlink:href="#DejaVuSans-2d" x="417.822266"/>
       <use xlink:href="#DejaVuSans-31" x="453.90625"/>
       <use xlink:href="#DejaVuSans-31" x="517.529297"/>
      </g>
     </g>
    </g>
    <g id="xtick_4">
     <g id="line2d_4">
      <g>
       <use xlink:href="#m22276161a5" x="262.793464" y="289.052197" style="stroke: #000000; stroke-width: 0.8"/>
      </g>
     </g>
     <g id="text_4">
      <!-- 2020-06-16 -->
      <g transform="translate(235.439951 318.433155) rotate(-15) scale(0.1 -0.1)">
       <use xlink:href="#DejaVuSans-32"/>
       <use xlink:href="#DejaVuSans-30" x="63.623047"/>
       <use xlink:href="#DejaVuSans-32" x="127.246094"/>
       <use xlink:href="#DejaVuSans-30" x="190.869141"/>
       <use xlink:href="#DejaVuSans-2d" x="254.492188"/>
       <use xlink:href="#DejaVuSans-30" x="290.576172"/>
       <use xlink:href="#DejaVuSans-36" x="354.199219"/>
       <use xlink:href="#DejaVuSans-2d" x="417.822266"/>
       <use xlink:href="#DejaVuSans-31" x="453.90625"/>
       <use xlink:href="#DejaVuSans-36" x="517.529297"/>
      </g>
     </g>
    </g>
    <g id="xtick_5">
     <g id="line2d_5">
      <g>
       <use xlink:href="#m22276161a5" x="323.378103" y="289.052197" style="stroke: #000000; stroke-width: 0.8"/>
      </g>
     </g>
     <g id="text_5">
      <!-- 2020-06-21 -->
      <g transform="translate(296.024591 318.433155) rotate(-15) scale(0.1 -0.1)">
       <use xlink:href="#DejaVuSans-32"/>
       <use xlink:href="#DejaVuSans-30" x="63.623047"/>
       <use xlink:href="#DejaVuSans-32" x="127.246094"/>
       <use xlink:href="#DejaVuSans-30" x="190.869141"/>
       <use xlink:href="#DejaVuSans-2d" x="254.492188"/>
       <use xlink:href="#DejaVuSans-30" x="290.576172"/>
       <use xlink:href="#DejaVuSans-36" x="354.199219"/>
       <use xlink:href="#DejaVuSans-2d" x="417.822266"/>
       <use xlink:href="#DejaVuSans-32" x="453.90625"/>
       <use xlink:href="#DejaVuSans-31" x="517.529297"/>
      </g>
     </g>
    </g>
    <g id="xtick_6">
     <g id="line2d_6">
      <g>
       <use xlink:href="#m22276161a5" x="383.962743" y="289.052197" style="stroke: #000000; stroke-width: 0.8"/>
      </g>
     </g>
     <g id="text_6">
      <!-- 2020-06-26 -->
      <g transform="translate(356.60923 318.433155) rotate(-15) scale(0.1 -0.1)">
       <use xlink:href="#DejaVuSans-32"/>
       <use xlink:href="#DejaVuSans-30" x="63.623047"/>
       <use xlink:href="#DejaVuSans-32" x="127.246094"/>
       <use xlink:href="#DejaVuSans-30" x="190.869141"/>
       <use xlink:href="#DejaVuSans-2d" x="254.492188"/>
       <use xlink:href="#DejaVuSans-30" x="290.576172"/>
       <use xlink:href="#DejaVuSans-36" x="354.199219"/>
       <use xlink:href="#DejaVuSans-2d" x="417.822266"/>
       <use xlink:href="#DejaVuSans-32" x="453.90625"/>
       <use xlink:href="#DejaVuSans-36" x="517.529297"/>
      </g>
     </g>
    </g>
    <g id="xtick_7">
     <g id="line2d_7">
      <g>
       <use xlink:href="#m22276161a5" x="444.547382" y="289.052197" style="stroke: #000000; stroke-width: 0.8"/>
      </g>
     </g>
    </g>
    <g id="text_7">
     <!-- Day -->
     <g transform="translate(246.861563 332.040416) scale(0.1 -0.1)">
      <defs>
       <path id="DejaVuSans-44" d="M 1259 4147 
L 1259 519 
L 2022 519 
Q 2988 519 3436 956 
Q 3884 1394 3884 2338 
Q 3884 3275 3436 3711 
Q 2988 4147 2022 4147 
L 1259 4147 
z
M 628 4666 
L 1925 4666 
Q 3281 4666 3915 4102 
Q 4550 3538 4550 2338 
Q 4550 1131 3912 565 
Q 3275 0 1925 0 
L 628 0 
L 628 4666 
z
" transform="scale(0.015625)"/>
       <path id="DejaVuSans-61" d="M 2194 1759 
Q 1497 1759 1228 1600 
Q 959 1441 959 1056 
Q 959 750 1161 570 
Q 1363 391 1709 391 
Q 2188 391 2477 730 
Q 2766 1069 2766 1631 
L 2766 1759 
L 2194 1759 
z
M 3341 1997 
L 3341 0 
L 2766 0 
L 2766 531 
Q 2569 213 2275 61 
Q 1981 -91 1556 -91 
Q 1019 -91 701 211 
Q 384 513 384 1019 
Q 384 1609 779 1909 
Q 1175 2209 1959 2209 
L 2766 2209 
L 2766 2266 
Q 2766 2663 2505 2880 
Q 2244 3097 1772 3097 
Q 1472 3097 1187 3025 
Q 903 2953 641 2809 
L 641 3341 
Q 956 3463 1253 3523 
Q 1550 3584 1831 3584 
Q 2591 3584 2966 3190 
Q 3341 2797 3341 1997 
z
" transform="scale(0.015625)"/>
       <path id="DejaVuSans-79" d="M 2059 -325 
Q 1816 -950 1584 -1140 
Q 1353 -1331 966 -1331 
L 506 -1331 
L 506 -850 
L 844 -850 
Q 1081 -850 1212 -737 
Q 1344 -625 1503 -206 
L 1606 56 
L 191 3500 
L 800 3500 
L 1894 763 
L 2988 3500 
L 3597 3500 
L 2059 -325 
z
" transform="scale(0.015625)"/>
      </defs>
      <use xlink:href="#DejaVuSans-44"/>
      <use xlink:href="#DejaVuSans-61" x="77.001953"/>
      <use xlink:href="#DejaVuSans-79" x="138.28125"/>
     </g>
    </g>
   </g>
   <g id="matplotlib.axis_2">
    <g id="ytick_1">
     <g id="line2d_8">
      <defs>
       <path id="m879c9b806c" d="M 0 0 
L -3.5 0 
" style="stroke: #000000; stroke-width: 0.8"/>
      </defs>
      <g>
       <use xlink:href="#m879c9b806c" x="63.47" y="289.052197" style="stroke: #000000; stroke-width: 0.8"/>
      </g>
     </g>
     <g id="text_8">
      <!-- 0 -->
      <g transform="translate(50.1075 292.851416) scale(0.1 -0.1)">
       <use xlink:href="#DejaVuSans-30"/>
      </g>
     </g>
    </g>
    <g id="ytick_2">
     <g id="line2d_9">
      <g>
       <use xlink:href="#m879c9b806c" x="63.47" y="237.544687" style="stroke: #000000; stroke-width: 0.8"/>
      </g>
     </g>
     <g id="text_9">
      <!-- 5000 -->
      <g transform="translate(31.02 241.343905) scale(0.1 -0.1)">
       <defs>
        <path id="DejaVuSans-35" d="M 691 4666 
L 3169 4666 
L 3169 4134 
L 1269 4134 
L 1269 2991 
Q 1406 3038 1543 3061 
Q 1681 3084 1819 3084 
Q 2600 3084 3056 2656 
Q 3513 2228 3513 1497 
Q 3513 744 3044 326 
Q 2575 -91 1722 -91 
Q 1428 -91 1123 -41 
Q 819 9 494 109 
L 494 744 
Q 775 591 1075 516 
Q 1375 441 1709 441 
Q 2250 441 2565 725 
Q 2881 1009 2881 1497 
Q 2881 1984 2565 2268 
Q 2250 2553 1709 2553 
Q 1456 2553 1204 2497 
Q 953 2441 691 2322 
L 691 4666 
z
" transform="scale(0.015625)"/>
       </defs>
       <use xlink:href="#DejaVuSans-35"/>
       <use xlink:href="#DejaVuSans-30" x="63.623047"/>
       <use xlink:href="#DejaVuSans-30" x="127.246094"/>
       <use xlink:href="#DejaVuSans-30" x="190.869141"/>
      </g>
     </g>
    </g>
    <g id="ytick_3">
     <g id="line2d_10">
      <g>
       <use xlink:href="#m879c9b806c" x="63.47" y="186.037176" style="stroke: #000000; stroke-width: 0.8"/>
      </g>
     </g>
     <g id="text_10">
      <!-- 10000 -->
      <g transform="translate(24.6575 189.836395) scale(0.1 -0.1)">
       <use xlink:href="#DejaVuSans-31"/>
       <use xlink:href="#DejaVuSans-30" x="63.623047"/>
       <use xlink:href="#DejaVuSans-30" x="127.246094"/>
       <use xlink:href="#DejaVuSans-30" x="190.869141"/>
       <use xlink:href="#DejaVuSans-30" x="254.492188"/>
      </g>
     </g>
    </g>
    <g id="ytick_4">
     <g id="line2d_11">
      <g>
       <use xlink:href="#m879c9b806c" x="63.47" y="134.529666" style="stroke: #000000; stroke-width: 0.8"/>
      </g>
     </g>
     <g id="text_11">
      <!-- 15000 -->
      <g transform="translate(24.6575 138.328885) scale(0.1 -0.1)">
       <use xlink:href="#DejaVuSans-31"/>
       <use xlink:href="#DejaVuSans-35" x="63.623047"/>
       <use xlink:href="#DejaVuSans-30" x="127.246094"/>
       <use xlink:href="#DejaVuSans-30" x="190.869141"/>
       <use xlink:href="#DejaVuSans-30" x="254.492188"/>
      </g>
     </g>
    </g>
    <g id="ytick_5">
     <g id="line2d_12">
      <g>
       <use xlink:href="#m879c9b806c" x="63.47" y="83.022156" style="stroke: #000000; stroke-width: 0.8"/>
      </g>
     </g>
     <g id="text_12">
      <!-- 20000 -->
      <g transform="translate(24.6575 86.821375) scale(0.1 -0.1)">
       <use xlink:href="#DejaVuSans-32"/>
       <use xlink:href="#DejaVuSans-30" x="63.623047"/>
       <use xlink:href="#DejaVuSans-30" x="127.246094"/>
       <use xlink:href="#DejaVuSans-30" x="190.869141"/>
       <use xlink:href="#DejaVuSans-30" x="254.492188"/>
      </g>
     </g>
    </g>
    <g id="ytick_6">
     <g id="line2d_13">
      <g>
       <use xlink:href="#m879c9b806c" x="63.47" y="31.514646" style="stroke: #000000; stroke-width: 0.8"/>
      </g>
     </g>
     <g id="text_13">
      <!-- 25000 -->
      <g transform="translate(24.6575 35.313865) scale(0.1 -0.1)">
       <use xlink:href="#DejaVuSans-32"/>
       <use xlink:href="#DejaVuSans-35" x="63.623047"/>
       <use xlink:href="#DejaVuSans-30" x="127.246094"/>
       <use xlink:href="#DejaVuSans-30" x="190.869141"/>
       <use xlink:href="#DejaVuSans-30" x="254.492188"/>
      </g>
     </g>
    </g>
    <g id="text_14">
     <!-- Number of Pedestrians -->
     <g transform="translate(18.577813 215.057505) rotate(-90) scale(0.1 -0.1)">
      <defs>
       <path id="DejaVuSans-4e" d="M 628 4666 
L 1478 4666 
L 3547 763 
L 3547 4666 
L 4159 4666 
L 4159 0 
L 3309 0 
L 1241 3903 
L 1241 0 
L 628 0 
L 628 4666 
z
" transform="scale(0.015625)"/>
       <path id="DejaVuSans-75" d="M 544 1381 
L 544 3500 
L 1119 3500 
L 1119 1403 
Q 1119 906 1312 657 
Q 1506 409 1894 409 
Q 2359 409 2629 706 
Q 2900 1003 2900 1516 
L 2900 3500 
L 3475 3500 
L 3475 0 
L 2900 0 
L 2900 538 
Q 2691 219 2414 64 
Q 2138 -91 1772 -91 
Q 1169 -91 856 284 
Q 544 659 544 1381 
z
M 1991 3584 
L 1991 3584 
z
" transform="scale(0.015625)"/>
       <path id="DejaVuSans-6d" d="M 3328 2828 
Q 3544 3216 3844 3400 
Q 4144 3584 4550 3584 
Q 5097 3584 5394 3201 
Q 5691 2819 5691 2113 
L 5691 0 
L 5113 0 
L 5113 2094 
Q 5113 2597 4934 2840 
Q 4756 3084 4391 3084 
Q 3944 3084 3684 2787 
Q 3425 2491 3425 1978 
L 3425 0 
L 2847 0 
L 2847 2094 
Q 2847 2600 2669 2842 
Q 2491 3084 2119 3084 
Q 1678 3084 1418 2786 
Q 1159 2488 1159 1978 
L 1159 0 
L 581 0 
L 581 3500 
L 1159 3500 
L 1159 2956 
Q 1356 3278 1631 3431 
Q 1906 3584 2284 3584 
Q 2666 3584 2933 3390 
Q 3200 3197 3328 2828 
z
" transform="scale(0.015625)"/>
       <path id="DejaVuSans-62" d="M 3116 1747 
Q 3116 2381 2855 2742 
Q 2594 3103 2138 3103 
Q 1681 3103 1420 2742 
Q 1159 2381 1159 1747 
Q 1159 1113 1420 752 
Q 1681 391 2138 391 
Q 2594 391 2855 752 
Q 3116 1113 3116 1747 
z
M 1159 2969 
Q 1341 3281 1617 3432 
Q 1894 3584 2278 3584 
Q 2916 3584 3314 3078 
Q 3713 2572 3713 1747 
Q 3713 922 3314 415 
Q 2916 -91 2278 -91 
Q 1894 -91 1617 61 
Q 1341 213 1159 525 
L 1159 0 
L 581 0 
L 581 4863 
L 1159 4863 
L 1159 2969 
z
" transform="scale(0.015625)"/>
       <path id="DejaVuSans-65" d="M 3597 1894 
L 3597 1613 
L 953 1613 
Q 991 1019 1311 708 
Q 1631 397 2203 397 
Q 2534 397 2845 478 
Q 3156 559 3463 722 
L 3463 178 
Q 3153 47 2828 -22 
Q 2503 -91 2169 -91 
Q 1331 -91 842 396 
Q 353 884 353 1716 
Q 353 2575 817 3079 
Q 1281 3584 2069 3584 
Q 2775 3584 3186 3129 
Q 3597 2675 3597 1894 
z
M 3022 2063 
Q 3016 2534 2758 2815 
Q 2500 3097 2075 3097 
Q 1594 3097 1305 2825 
Q 1016 2553 972 2059 
L 3022 2063 
z
" transform="scale(0.015625)"/>
       <path id="DejaVuSans-72" d="M 2631 2963 
Q 2534 3019 2420 3045 
Q 2306 3072 2169 3072 
Q 1681 3072 1420 2755 
Q 1159 2438 1159 1844 
L 1159 0 
L 581 0 
L 581 3500 
L 1159 3500 
L 1159 2956 
Q 1341 3275 1631 3429 
Q 1922 3584 2338 3584 
Q 2397 3584 2469 3576 
Q 2541 3569 2628 3553 
L 2631 2963 
z
" transform="scale(0.015625)"/>
       <path id="DejaVuSans-20" transform="scale(0.015625)"/>
       <path id="DejaVuSans-6f" d="M 1959 3097 
Q 1497 3097 1228 2736 
Q 959 2375 959 1747 
Q 959 1119 1226 758 
Q 1494 397 1959 397 
Q 2419 397 2687 759 
Q 2956 1122 2956 1747 
Q 2956 2369 2687 2733 
Q 2419 3097 1959 3097 
z
M 1959 3584 
Q 2709 3584 3137 3096 
Q 3566 2609 3566 1747 
Q 3566 888 3137 398 
Q 2709 -91 1959 -91 
Q 1206 -91 779 398 
Q 353 888 353 1747 
Q 353 2609 779 3096 
Q 1206 3584 1959 3584 
z
" transform="scale(0.015625)"/>
       <path id="DejaVuSans-66" d="M 2375 4863 
L 2375 4384 
L 1825 4384 
Q 1516 4384 1395 4259 
Q 1275 4134 1275 3809 
L 1275 3500 
L 2222 3500 
L 2222 3053 
L 1275 3053 
L 1275 0 
L 697 0 
L 697 3053 
L 147 3053 
L 147 3500 
L 697 3500 
L 697 3744 
Q 697 4328 969 4595 
Q 1241 4863 1831 4863 
L 2375 4863 
z
" transform="scale(0.015625)"/>
       <path id="DejaVuSans-50" d="M 1259 4147 
L 1259 2394 
L 2053 2394 
Q 2494 2394 2734 2622 
Q 2975 2850 2975 3272 
Q 2975 3691 2734 3919 
Q 2494 4147 2053 4147 
L 1259 4147 
z
M 628 4666 
L 2053 4666 
Q 2838 4666 3239 4311 
Q 3641 3956 3641 3272 
Q 3641 2581 3239 2228 
Q 2838 1875 2053 1875 
L 1259 1875 
L 1259 0 
L 628 0 
L 628 4666 
z
" transform="scale(0.015625)"/>
       <path id="DejaVuSans-64" d="M 2906 2969 
L 2906 4863 
L 3481 4863 
L 3481 0 
L 2906 0 
L 2906 525 
Q 2725 213 2448 61 
Q 2172 -91 1784 -91 
Q 1150 -91 751 415 
Q 353 922 353 1747 
Q 353 2572 751 3078 
Q 1150 3584 1784 3584 
Q 2172 3584 2448 3432 
Q 2725 3281 2906 2969 
z
M 947 1747 
Q 947 1113 1208 752 
Q 1469 391 1925 391 
Q 2381 391 2643 752 
Q 2906 1113 2906 1747 
Q 2906 2381 2643 2742 
Q 2381 3103 1925 3103 
Q 1469 3103 1208 2742 
Q 947 2381 947 1747 
z
" transform="scale(0.015625)"/>
       <path id="DejaVuSans-73" d="M 2834 3397 
L 2834 2853 
Q 2591 2978 2328 3040 
Q 2066 3103 1784 3103 
Q 1356 3103 1142 2972 
Q 928 2841 928 2578 
Q 928 2378 1081 2264 
Q 1234 2150 1697 2047 
L 1894 2003 
Q 2506 1872 2764 1633 
Q 3022 1394 3022 966 
Q 3022 478 2636 193 
Q 2250 -91 1575 -91 
Q 1294 -91 989 -36 
Q 684 19 347 128 
L 347 722 
Q 666 556 975 473 
Q 1284 391 1588 391 
Q 1994 391 2212 530 
Q 2431 669 2431 922 
Q 2431 1156 2273 1281 
Q 2116 1406 1581 1522 
L 1381 1569 
Q 847 1681 609 1914 
Q 372 2147 372 2553 
Q 372 3047 722 3315 
Q 1072 3584 1716 3584 
Q 2034 3584 2315 3537 
Q 2597 3491 2834 3397 
z
" transform="scale(0.015625)"/>
       <path id="DejaVuSans-74" d="M 1172 4494 
L 1172 3500 
L 2356 3500 
L 2356 3053 
L 1172 3053 
L 1172 1153 
Q 1172 725 1289 603 
Q 1406 481 1766 481 
L 2356 481 
L 2356 0 
L 1766 0 
Q 1100 0 847 248 
Q 594 497 594 1153 
L 594 3053 
L 172 3053 
L 172 3500 
L 594 3500 
L 594 4494 
L 1172 4494 
z
" transform="scale(0.015625)"/>
       <path id="DejaVuSans-69" d="M 603 3500 
L 1178 3500 
L 1178 0 
L 603 0 
L 603 3500 
z
M 603 4863 
L 1178 4863 
L 1178 4134 
L 603 4134 
L 603 4863 
z
" transform="scale(0.015625)"/>
       <path id="DejaVuSans-6e" d="M 3513 2113 
L 3513 0 
L 2938 0 
L 2938 2094 
Q 2938 2591 2744 2837 
Q 2550 3084 2163 3084 
Q 1697 3084 1428 2787 
Q 1159 2491 1159 1978 
L 1159 0 
L 581 0 
L 581 3500 
L 1159 3500 
L 1159 2956 
Q 1366 3272 1645 3428 
Q 1925 3584 2291 3584 
Q 2894 3584 3203 3211 
Q 3513 2838 3513 2113 
z
" transform="scale(0.015625)"/>
      </defs>
      <use xlink:href="#DejaVuSans-4e"/>
      <use xlink:href="#DejaVuSans-75" x="74.804688"/>
      <use xlink:href="#DejaVuSans-6d" x="138.183594"/>
      <use xlink:href="#DejaVuSans-62" x="235.595703"/>
      <use xlink:href="#DejaVuSans-65" x="299.072266"/>
      <use xlink:href="#DejaVuSans-72" x="360.595703"/>
      <use xlink:href="#DejaVuSans-20" x="401.708984"/>
      <use xlink:href="#DejaVuSans-6f" x="433.496094"/>
      <use xlink:href="#DejaVuSans-66" x="494.677734"/>
      <use xlink:href="#DejaVuSans-20" x="529.882812"/>
      <use xlink:href="#DejaVuSans-50" x="561.669922"/>
      <use xlink:href="#DejaVuSans-65" x="618.347656"/>
      <use xlink:href="#DejaVuSans-64" x="679.871094"/>
      <use xlink:href="#DejaVuSans-65" x="743.347656"/>
      <use xlink:href="#DejaVuSans-73" x="804.871094"/>
      <use xlink:href="#DejaVuSans-74" x="856.970703"/>
      <use xlink:href="#DejaVuSans-72" x="896.179688"/>
      <use xlink:href="#DejaVuSans-69" x="937.292969"/>
      <use xlink:href="#DejaVuSans-61" x="965.076172"/>
      <use xlink:href="#DejaVuSans-6e" x="1026.355469"/>
      <use xlink:href="#DejaVuSans-73" x="1089.734375"/>
     </g>
    </g>
   </g>
   <g id="line2d_14">
    <path d="M 81.039545 259.692916 
L 93.156473 259.816534 
L 105.273401 256.303722 
L 117.390329 256.22131 
L 129.507257 258.796685 
L 141.624185 243.849206 
L 153.741113 244.879356 
L 165.858041 263.42206 
L 177.974969 274.753712 
L 190.091897 274.218034 
L 202.208824 260.908493 
L 214.325752 249.205987 
L 226.44268 237.338657 
L 238.559608 242.046443 
L 250.676536 264.029848 
L 262.793464 263.895929 
L 274.910392 264.946682 
L 287.02732 265.667787 
L 299.144248 260.589147 
L 311.261176 254.758497 
L 323.378103 258.631861 
L 335.495031 275.783862 
L 347.611959 266.327083 
L 359.728887 265.842913 
L 371.845815 264.936381 
L 383.962743 269.479343 
L 396.079671 254.995431 
L 408.196599 266.182862 
L 420.313527 276.927329 
L 432.430455 272.085623 
" clip-path="url(#pdf65eacf49)" style="fill: none; stroke: #1f77b4; stroke-width: 1.5; stroke-linecap: square"/>
   </g>
   <g id="line2d_15">
    <path d="M 81.039545 227.850973 
L 93.156473 233.784638 
L 105.273401 227.098964 
L 117.390329 228.108511 
L 129.507257 231.847956 
L 141.624185 204.415056 
L 153.741113 202.93164 
L 165.858041 242.36579 
L 177.974969 267.140902 
L 190.091897 263.42206 
L 202.208824 235.546195 
L 214.325752 218.074848 
L 226.44268 193.773605 
L 238.559608 205.136161 
L 250.676536 243.220814 
L 262.793464 241.490162 
L 274.910392 245.239909 
L 287.02732 246.28036 
L 299.144248 236.627853 
L 311.261176 231.52861 
L 323.378103 230.137907 
L 335.495031 268.098942 
L 347.611959 249.133877 
L 359.728887 247.063275 
L 371.845815 245.281115 
L 383.962743 255.922566 
L 396.079671 226.336652 
L 408.196599 250.081615 
L 420.313527 268.717032 
L 432.430455 260.661257 
" clip-path="url(#pdf65eacf49)" style="fill: none; stroke: #ff7f0e; stroke-width: 1.5; stroke-linecap: square"/>
   </g>
   <g id="line2d_16">
    <path d="M 81.039545 205.908774 
L 93.156473 220.402987 
L 105.273401 214.953493 
L 117.390329 217.075602 
L 129.507257 222.792936 
L 141.624185 185.264564 
L 153.741113 178.269844 
L 165.858041 233.228357 
L 177.974969 261.361759 
L 190.091897 254.397944 
L 202.208824 215.499472 
L 214.325752 199.975109 
L 226.44268 158.573372 
L 238.559608 174.458288 
L 250.676536 225.502231 
L 262.793464 225.914291 
L 274.910392 233.990669 
L 287.02732 236.916295 
L 299.144248 225.481628 
L 311.261176 215.860025 
L 323.378103 213.707011 
L 335.495031 260.795177 
L 347.611959 233.681623 
L 359.728887 232.229112 
L 371.845815 231.26077 
L 383.962743 244.477598 
L 396.079671 211.50249 
L 408.196599 242.097951 
L 420.313527 261.670805 
L 432.430455 253.357492 
" clip-path="url(#pdf65eacf49)" style="fill: none; stroke: #2ca02c; stroke-width: 1.5; stroke-linecap: square"/>
   </g>
   <g id="line2d_17">
    <path d="M 81.039545 182.627379 
L 93.156473 198.182647 
L 105.273401 188.787678 
L 117.390329 190.332903 
L 129.507257 195.081895 
L 141.624185 141.07112 
L 153.741113 132.654793 
L 165.858041 209.648219 
L 177.974969 255.366285 
L 190.091897 243.107498 
L 202.208824 187.685417 
L 214.325752 163.63141 
L 226.44268 104.830436 
L 238.559608 133.025647 
L 250.676536 202.529881 
L 262.793464 201.757269 
L 274.910392 213.985152 
L 287.02732 219.578867 
L 299.144248 203.982393 
L 311.261176 195.586669 
L 323.378103 186.923106 
L 335.495031 252.286136 
L 347.611959 214.93289 
L 359.728887 212.625353 
L 371.845815 212.058771 
L 383.962743 232.260016 
L 396.079671 183.904766 
L 408.196599 230.477856 
L 420.313527 253.851964 
L 432.430455 242.674835 
" clip-path="url(#pdf65eacf49)" style="fill: none; stroke: #d62728; stroke-width: 1.5; stroke-linecap: square"/>
   </g>
   <g id="line2d_18">
    <path d="M 81.039545 147.540463 
L 93.156473 167.947739 
L 105.273401 159.634427 
L 117.390329 153.669857 
L 129.507257 158.037694 
L 141.624185 86.225923 
L 153.741113 70.423419 
L 165.858041 177.806276 
L 177.974969 239.914032 
L 190.091897 226.027607 
L 202.208824 153.010561 
L 214.325752 118.397514 
L 226.44268 39.36439 
L 238.559608 81.136981 
L 250.676536 170.214069 
L 262.793464 168.493718 
L 274.910392 183.358786 
L 287.02732 190.260792 
L 299.144248 162.209802 
L 311.261176 159.469603 
L 323.378103 146.613328 
L 335.495031 238.368807 
L 347.611959 188.725869 
L 359.728887 185.800242 
L 371.845815 184.68768 
L 383.962743 212.615052 
L 396.079671 140.370618 
L 408.196599 200.80953 
L 420.313527 241.005991 
L 432.430455 221.917308 
" clip-path="url(#pdf65eacf49)" style="fill: none; stroke: #9467bd; stroke-width: 1.5; stroke-linecap: square"/>
   </g>
   <g id="patch_3">
    <path d="M 63.47 289.052197 
L 63.47 26.88 
" style="fill: none; stroke: #000000; stroke-width: 0.8; stroke-linejoin: miter; stroke-linecap: square"/>
   </g>
   <g id="patch_4">
    <path d="M 450 289.052197 
L 450 26.88 
" style="fill: none; stroke: #000000; stroke-width: 0.8; stroke-linejoin: miter; stroke-linecap: square"/>
   </g>
   <g id="patch_5">
    <path d="M 63.47 289.052197 
L 450 289.052197 
" style="fill: none; stroke: #000000; stroke-width: 0.8; stroke-linejoin: miter; stroke-linecap: square"/>
   </g>
   <g id="patch_6">
    <path d="M 63.47 26.88 
L 450 26.88 
" style="fill: none; stroke: #000000; stroke-width: 0.8; stroke-linejoin: miter; stroke-linecap: square"/>
   </g>
   <g id="text_15">
    <!-- June 2020 State Street Pedestrian Data by Day -->
    <g transform="translate(115.720938 20.88) scale(0.12 -0.12)">
     <defs>
      <path id="DejaVuSans-4a" d="M 628 4666 
L 1259 4666 
L 1259 325 
Q 1259 -519 939 -900 
Q 619 -1281 -91 -1281 
L -331 -1281 
L -331 -750 
L -134 -750 
Q 284 -750 456 -515 
Q 628 -281 628 325 
L 628 4666 
z
" transform="scale(0.015625)"/>
      <path id="DejaVuSans-53" d="M 3425 4513 
L 3425 3897 
Q 3066 4069 2747 4153 
Q 2428 4238 2131 4238 
Q 1616 4238 1336 4038 
Q 1056 3838 1056 3469 
Q 1056 3159 1242 3001 
Q 1428 2844 1947 2747 
L 2328 2669 
Q 3034 2534 3370 2195 
Q 3706 1856 3706 1288 
Q 3706 609 3251 259 
Q 2797 -91 1919 -91 
Q 1588 -91 1214 -16 
Q 841 59 441 206 
L 441 856 
Q 825 641 1194 531 
Q 1563 422 1919 422 
Q 2459 422 2753 634 
Q 3047 847 3047 1241 
Q 3047 1584 2836 1778 
Q 2625 1972 2144 2069 
L 1759 2144 
Q 1053 2284 737 2584 
Q 422 2884 422 3419 
Q 422 4038 858 4394 
Q 1294 4750 2059 4750 
Q 2388 4750 2728 4690 
Q 3069 4631 3425 4513 
z
" transform="scale(0.015625)"/>
     </defs>
     <use xlink:href="#DejaVuSans-4a"/>
     <use xlink:href="#DejaVuSans-75" x="29.492188"/>
     <use xlink:href="#DejaVuSans-6e" x="92.871094"/>
     <use xlink:href="#DejaVuSans-65" x="156.25"/>
     <use xlink:href="#DejaVuSans-20" x="217.773438"/>
     <use xlink:href="#DejaVuSans-32" x="249.560547"/>
     <use xlink:href="#DejaVuSans-30" x="313.183594"/>
     <use xlink:href="#DejaVuSans-32" x="376.806641"/>
     <use xlink:href="#DejaVuSans-30" x="440.429688"/>
     <use xlink:href="#DejaVuSans-20" x="504.052734"/>
     <use xlink:href="#DejaVuSans-53" x="535.839844"/>
     <use xlink:href="#DejaVuSans-74" x="599.316406"/>
     <use xlink:href="#DejaVuSans-61" x="638.525391"/>
     <use xlink:href="#DejaVuSans-74" x="699.804688"/>
     <use xlink:href="#DejaVuSans-65" x="739.013672"/>
     <use xlink:href="#DejaVuSans-20" x="800.537109"/>
     <use xlink:href="#DejaVuSans-53" x="832.324219"/>
     <use xlink:href="#DejaVuSans-74" x="895.800781"/>
     <use xlink:href="#DejaVuSans-72" x="935.009766"/>
     <use xlink:href="#DejaVuSans-65" x="973.873047"/>
     <use xlink:href="#DejaVuSans-65" x="1035.396484"/>
     <use xlink:href="#DejaVuSans-74" x="1096.919922"/>
     <use xlink:href="#DejaVuSans-20" x="1136.128906"/>
     <use xlink:href="#DejaVuSans-50" x="1167.916016"/>
     <use xlink:href="#DejaVuSans-65" x="1224.59375"/>
     <use xlink:href="#DejaVuSans-64" x="1286.117188"/>
     <use xlink:href="#DejaVuSans-65" x="1349.59375"/>
     <use xlink:href="#DejaVuSans-73" x="1411.117188"/>
     <use xlink:href="#DejaVuSans-74" x="1463.216797"/>
     <use xlink:href="#DejaVuSans-72" x="1502.425781"/>
     <use xlink:href="#DejaVuSans-69" x="1543.539062"/>
     <use xlink:href="#DejaVuSans-61" x="1571.322266"/>
     <use xlink:href="#DejaVuSans-6e" x="1632.601562"/>
     <use xlink:href="#DejaVuSans-20" x="1695.980469"/>
     <use xlink:href="#DejaVuSans-44" x="1727.767578"/>
     <use xlink:href="#DejaVuSans-61" x="1804.769531"/>
     <use xlink:href="#DejaVuSans-74" x="1866.048828"/>
     <use xlink:href="#DejaVuSans-61" x="1905.257812"/>
     <use xlink:href="#DejaVuSans-20" x="1966.537109"/>
     <use xlink:href="#DejaVuSans-62" x="1998.324219"/>
     <use xlink:href="#DejaVuSans-79" x="2061.800781"/>
     <use xlink:href="#DejaVuSans-20" x="2120.980469"/>
     <use xlink:href="#DejaVuSans-44" x="2152.767578"/>
     <use xlink:href="#DejaVuSans-61" x="2229.769531"/>
     <use xlink:href="#DejaVuSans-79" x="2291.048828"/>
    </g>
   </g>
   <g id="legend_1">
    <g id="patch_7">
     <path d="M 260.671875 109.66125 
L 443 109.66125 
Q 445 109.66125 445 107.66125 
L 445 33.88 
Q 445 31.88 443 31.88 
L 260.671875 31.88 
Q 258.671875 31.88 258.671875 33.88 
L 258.671875 107.66125 
Q 258.671875 109.66125 260.671875 109.66125 
z
" style="fill: #ffffff; opacity: 0.8; stroke: #cccccc; stroke-linejoin: miter"/>
    </g>
    <g id="patch_8">
     <path d="M 262.671875 43.478437 
L 282.671875 43.478437 
L 282.671875 36.478437 
L 262.671875 36.478437 
z
" style="fill: #1f77b4; stroke: #1f77b4; stroke-linejoin: miter"/>
    </g>
    <g id="text_16">
     <!-- SS_22_State_St__North_Side -->
     <g transform="translate(290.671875 43.478437) scale(0.1 -0.1)">
      <defs>
       <path id="DejaVuSans-5f" d="M 3263 -1063 
L 3263 -1509 
L -63 -1509 
L -63 -1063 
L 3263 -1063 
z
" transform="scale(0.015625)"/>
       <path id="DejaVuSans-68" d="M 3513 2113 
L 3513 0 
L 2938 0 
L 2938 2094 
Q 2938 2591 2744 2837 
Q 2550 3084 2163 3084 
Q 1697 3084 1428 2787 
Q 1159 2491 1159 1978 
L 1159 0 
L 581 0 
L 581 4863 
L 1159 4863 
L 1159 2956 
Q 1366 3272 1645 3428 
Q 1925 3584 2291 3584 
Q 2894 3584 3203 3211 
Q 3513 2838 3513 2113 
z
" transform="scale(0.015625)"/>
      </defs>
      <use xlink:href="#DejaVuSans-53"/>
      <use xlink:href="#DejaVuSans-53" x="63.476562"/>
      <use xlink:href="#DejaVuSans-5f" x="126.953125"/>
      <use xlink:href="#DejaVuSans-32" x="176.953125"/>
      <use xlink:href="#DejaVuSans-32" x="240.576172"/>
      <use xlink:href="#DejaVuSans-5f" x="304.199219"/>
      <use xlink:href="#DejaVuSans-53" x="354.199219"/>
      <use xlink:href="#DejaVuSans-74" x="417.675781"/>
      <use xlink:href="#DejaVuSans-61" x="456.884766"/>
      <use xlink:href="#DejaVuSans-74" x="518.164062"/>
      <use xlink:href="#DejaVuSans-65" x="557.373047"/>
      <use xlink:href="#DejaVuSans-5f" x="618.896484"/>
      <use xlink:href="#DejaVuSans-53" x="668.896484"/>
      <use xlink:href="#DejaVuSans-74" x="732.373047"/>
      <use xlink:href="#DejaVuSans-5f" x="771.582031"/>
      <use xlink:href="#DejaVuSans-5f" x="821.582031"/>
      <use xlink:href="#DejaVuSans-4e" x="871.582031"/>
      <use xlink:href="#DejaVuSans-6f" x="946.386719"/>
      <use xlink:href="#DejaVuSans-72" x="1007.568359"/>
      <use xlink:href="#DejaVuSans-74" x="1048.681641"/>
      <use xlink:href="#DejaVuSans-68" x="1087.890625"/>
      <use xlink:href="#DejaVuSans-5f" x="1151.269531"/>
      <use xlink:href="#DejaVuSans-53" x="1201.269531"/>
      <use xlink:href="#DejaVuSans-69" x="1264.746094"/>
      <use xlink:href="#DejaVuSans-64" x="1292.529297"/>
      <use xlink:href="#DejaVuSans-65" x="1356.005859"/>
     </g>
    </g>
    <g id="patch_9">
     <path d="M 262.671875 58.434687 
L 282.671875 58.434687 
L 282.671875 51.434687 
L 262.671875 51.434687 
z
" style="fill: #ff7f0e; stroke: #ff7f0e; stroke-linejoin: miter"/>
    </g>
    <g id="text_17">
     <!-- SS_23_State_St__South_Side -->
     <g transform="translate(290.671875 58.434687) scale(0.1 -0.1)">
      <defs>
       <path id="DejaVuSans-33" d="M 2597 2516 
Q 3050 2419 3304 2112 
Q 3559 1806 3559 1356 
Q 3559 666 3084 287 
Q 2609 -91 1734 -91 
Q 1441 -91 1130 -33 
Q 819 25 488 141 
L 488 750 
Q 750 597 1062 519 
Q 1375 441 1716 441 
Q 2309 441 2620 675 
Q 2931 909 2931 1356 
Q 2931 1769 2642 2001 
Q 2353 2234 1838 2234 
L 1294 2234 
L 1294 2753 
L 1863 2753 
Q 2328 2753 2575 2939 
Q 2822 3125 2822 3475 
Q 2822 3834 2567 4026 
Q 2313 4219 1838 4219 
Q 1578 4219 1281 4162 
Q 984 4106 628 3988 
L 628 4550 
Q 988 4650 1302 4700 
Q 1616 4750 1894 4750 
Q 2613 4750 3031 4423 
Q 3450 4097 3450 3541 
Q 3450 3153 3228 2886 
Q 3006 2619 2597 2516 
z
" transform="scale(0.015625)"/>
      </defs>
      <use xlink:href="#DejaVuSans-53"/>
      <use xlink:href="#DejaVuSans-53" x="63.476562"/>
      <use xlink:href="#DejaVuSans-5f" x="126.953125"/>
      <use xlink:href="#DejaVuSans-32" x="176.953125"/>
      <use xlink:href="#DejaVuSans-33" x="240.576172"/>
      <use xlink:href="#DejaVuSans-5f" x="304.199219"/>
      <use xlink:href="#DejaVuSans-53" x="354.199219"/>
      <use xlink:href="#DejaVuSans-74" x="417.675781"/>
      <use xlink:href="#DejaVuSans-61" x="456.884766"/>
      <use xlink:href="#DejaVuSans-74" x="518.164062"/>
      <use xlink:href="#DejaVuSans-65" x="557.373047"/>
      <use xlink:href="#DejaVuSans-5f" x="618.896484"/>
      <use xlink:href="#DejaVuSans-53" x="668.896484"/>
      <use xlink:href="#DejaVuSans-74" x="732.373047"/>
      <use xlink:href="#DejaVuSans-5f" x="771.582031"/>
      <use xlink:href="#DejaVuSans-5f" x="821.582031"/>
      <use xlink:href="#DejaVuSans-53" x="871.582031"/>
      <use xlink:href="#DejaVuSans-6f" x="935.058594"/>
      <use xlink:href="#DejaVuSans-75" x="996.240234"/>
      <use xlink:href="#DejaVuSans-74" x="1059.619141"/>
      <use xlink:href="#DejaVuSans-68" x="1098.828125"/>
      <use xlink:href="#DejaVuSans-5f" x="1162.207031"/>
      <use xlink:href="#DejaVuSans-53" x="1212.207031"/>
      <use xlink:href="#DejaVuSans-69" x="1275.683594"/>
      <use xlink:href="#DejaVuSans-64" x="1303.466797"/>
      <use xlink:href="#DejaVuSans-65" x="1366.943359"/>
     </g>
    </g>
    <g id="patch_10">
     <path d="M 262.671875 73.390938 
L 282.671875 73.390938 
L 282.671875 66.390938 
L 262.671875 66.390938 
z
" style="fill: #2ca02c; stroke: #2ca02c; stroke-linejoin: miter"/>
    </g>
    <g id="text_18">
     <!-- F200_State_St____Goodman_s -->
     <g transform="translate(290.671875 73.390938) scale(0.1 -0.1)">
      <defs>
       <path id="DejaVuSans-46" d="M 628 4666 
L 3309 4666 
L 3309 4134 
L 1259 4134 
L 1259 2759 
L 3109 2759 
L 3109 2228 
L 1259 2228 
L 1259 0 
L 628 0 
L 628 4666 
z
" transform="scale(0.015625)"/>
       <path id="DejaVuSans-47" d="M 3809 666 
L 3809 1919 
L 2778 1919 
L 2778 2438 
L 4434 2438 
L 4434 434 
Q 4069 175 3628 42 
Q 3188 -91 2688 -91 
Q 1594 -91 976 548 
Q 359 1188 359 2328 
Q 359 3472 976 4111 
Q 1594 4750 2688 4750 
Q 3144 4750 3555 4637 
Q 3966 4525 4313 4306 
L 4313 3634 
Q 3963 3931 3569 4081 
Q 3175 4231 2741 4231 
Q 1884 4231 1454 3753 
Q 1025 3275 1025 2328 
Q 1025 1384 1454 906 
Q 1884 428 2741 428 
Q 3075 428 3337 486 
Q 3600 544 3809 666 
z
" transform="scale(0.015625)"/>
      </defs>
      <use xlink:href="#DejaVuSans-46"/>
      <use xlink:href="#DejaVuSans-32" x="57.519531"/>
      <use xlink:href="#DejaVuSans-30" x="121.142578"/>
      <use xlink:href="#DejaVuSans-30" x="184.765625"/>
      <use xlink:href="#DejaVuSans-5f" x="248.388672"/>
      <use xlink:href="#DejaVuSans-53" x="298.388672"/>
      <use xlink:href="#DejaVuSans-74" x="361.865234"/>
      <use xlink:href="#DejaVuSans-61" x="401.074219"/>
      <use xlink:href="#DejaVuSans-74" x="462.353516"/>
      <use xlink:href="#DejaVuSans-65" x="501.5625"/>
      <use xlink:href="#DejaVuSans-5f" x="563.085938"/>
      <use xlink:href="#DejaVuSans-53" x="613.085938"/>
      <use xlink:href="#DejaVuSans-74" x="676.5625"/>
      <use xlink:href="#DejaVuSans-5f" x="715.771484"/>
      <use xlink:href="#DejaVuSans-5f" x="765.771484"/>
      <use xlink:href="#DejaVuSans-5f" x="815.771484"/>
      <use xlink:href="#DejaVuSans-5f" x="865.771484"/>
      <use xlink:href="#DejaVuSans-47" x="915.771484"/>
      <use xlink:href="#DejaVuSans-6f" x="993.261719"/>
      <use xlink:href="#DejaVuSans-6f" x="1054.443359"/>
      <use xlink:href="#DejaVuSans-64" x="1115.625"/>
      <use xlink:href="#DejaVuSans-6d" x="1179.101562"/>
      <use xlink:href="#DejaVuSans-61" x="1276.513672"/>
      <use xlink:href="#DejaVuSans-6e" x="1337.792969"/>
      <use xlink:href="#DejaVuSans-5f" x="1401.171875"/>
      <use xlink:href="#DejaVuSans-73" x="1451.171875"/>
     </g>
    </g>
    <g id="patch_11">
     <path d="M 262.671875 88.347187 
L 282.671875 88.347187 
L 282.671875 81.347187 
L 262.671875 81.347187 
z
" style="fill: #d62728; stroke: #d62728; stroke-linejoin: miter"/>
    </g>
    <g id="text_19">
     <!-- F200_State_St____Art_Center -->
     <g transform="translate(290.671875 88.347187) scale(0.1 -0.1)">
      <defs>
       <path id="DejaVuSans-41" d="M 2188 4044 
L 1331 1722 
L 3047 1722 
L 2188 4044 
z
M 1831 4666 
L 2547 4666 
L 4325 0 
L 3669 0 
L 3244 1197 
L 1141 1197 
L 716 0 
L 50 0 
L 1831 4666 
z
" transform="scale(0.015625)"/>
       <path id="DejaVuSans-43" d="M 4122 4306 
L 4122 3641 
Q 3803 3938 3442 4084 
Q 3081 4231 2675 4231 
Q 1875 4231 1450 3742 
Q 1025 3253 1025 2328 
Q 1025 1406 1450 917 
Q 1875 428 2675 428 
Q 3081 428 3442 575 
Q 3803 722 4122 1019 
L 4122 359 
Q 3791 134 3420 21 
Q 3050 -91 2638 -91 
Q 1578 -91 968 557 
Q 359 1206 359 2328 
Q 359 3453 968 4101 
Q 1578 4750 2638 4750 
Q 3056 4750 3426 4639 
Q 3797 4528 4122 4306 
z
" transform="scale(0.015625)"/>
      </defs>
      <use xlink:href="#DejaVuSans-46"/>
      <use xlink:href="#DejaVuSans-32" x="57.519531"/>
      <use xlink:href="#DejaVuSans-30" x="121.142578"/>
      <use xlink:href="#DejaVuSans-30" x="184.765625"/>
      <use xlink:href="#DejaVuSans-5f" x="248.388672"/>
      <use xlink:href="#DejaVuSans-53" x="298.388672"/>
      <use xlink:href="#DejaVuSans-74" x="361.865234"/>
      <use xlink:href="#DejaVuSans-61" x="401.074219"/>
      <use xlink:href="#DejaVuSans-74" x="462.353516"/>
      <use xlink:href="#DejaVuSans-65" x="501.5625"/>
      <use xlink:href="#DejaVuSans-5f" x="563.085938"/>
      <use xlink:href="#DejaVuSans-53" x="613.085938"/>
      <use xlink:href="#DejaVuSans-74" x="676.5625"/>
      <use xlink:href="#DejaVuSans-5f" x="715.771484"/>
      <use xlink:href="#DejaVuSans-5f" x="765.771484"/>
      <use xlink:href="#DejaVuSans-5f" x="815.771484"/>
      <use xlink:href="#DejaVuSans-5f" x="865.771484"/>
      <use xlink:href="#DejaVuSans-41" x="915.771484"/>
      <use xlink:href="#DejaVuSans-72" x="984.179688"/>
      <use xlink:href="#DejaVuSans-74" x="1025.292969"/>
      <use xlink:href="#DejaVuSans-5f" x="1064.501953"/>
      <use xlink:href="#DejaVuSans-43" x="1114.501953"/>
      <use xlink:href="#DejaVuSans-65" x="1184.326172"/>
      <use xlink:href="#DejaVuSans-6e" x="1245.849609"/>
      <use xlink:href="#DejaVuSans-74" x="1309.228516"/>
      <use xlink:href="#DejaVuSans-65" x="1348.4375"/>
      <use xlink:href="#DejaVuSans-72" x="1409.960938"/>
     </g>
    </g>
    <g id="patch_12">
     <path d="M 262.671875 103.303437 
L 282.671875 103.303437 
L 282.671875 96.303437 
L 262.671875 96.303437 
z
" style="fill: #9467bd; stroke: #9467bd; stroke-linejoin: miter"/>
    </g>
    <g id="text_20">
     <!-- F341_State_St_ -->
     <g transform="translate(290.671875 103.303437) scale(0.1 -0.1)">
      <defs>
       <path id="DejaVuSans-34" d="M 2419 4116 
L 825 1625 
L 2419 1625 
L 2419 4116 
z
M 2253 4666 
L 3047 4666 
L 3047 1625 
L 3713 1625 
L 3713 1100 
L 3047 1100 
L 3047 0 
L 2419 0 
L 2419 1100 
L 313 1100 
L 313 1709 
L 2253 4666 
z
" transform="scale(0.015625)"/>
      </defs>
      <use xlink:href="#DejaVuSans-46"/>
      <use xlink:href="#DejaVuSans-33" x="57.519531"/>
      <use xlink:href="#DejaVuSans-34" x="121.142578"/>
      <use xlink:href="#DejaVuSans-31" x="184.765625"/>
      <use xlink:href="#DejaVuSans-5f" x="248.388672"/>
      <use xlink:href="#DejaVuSans-53" x="298.388672"/>
      <use xlink:href="#DejaVuSans-74" x="361.865234"/>
      <use xlink:href="#DejaVuSans-61" x="401.074219"/>
      <use xlink:href="#DejaVuSans-74" x="462.353516"/>
      <use xlink:href="#DejaVuSans-65" x="501.5625"/>
      <use xlink:href="#DejaVuSans-5f" x="563.085938"/>
      <use xlink:href="#DejaVuSans-53" x="613.085938"/>
      <use xlink:href="#DejaVuSans-74" x="676.5625"/>
      <use xlink:href="#DejaVuSans-5f" x="715.771484"/>
     </g>
    </g>
   </g>
  </g>
 </g>
 <defs>
  <clipPath id="pdf65eacf49">
   <rect x="63.47" y="26.88" width="386.53" height="262.172197"/>
  </clipPath>
 </defs>
</svg>
